<svg xmlns="http://www.w3.org/2000/svg" xmlns:xlink="http://www.w3.org/1999/xlink" width="840" height="343.94"><rect width="840" height="343.94" rx="0" ry="0" class="a"></rect><svg height="303.94" viewBox="0 0 80 30.394" width="800" x="20" xmlns="http://www.w3.org/2000/svg" xmlns:xlink="http://www.w3.org/1999/xlink" y="20"><style>.a{fill:rgb(247,247,247)}.b{font-family:'Fira Code',Monaco,Consolas,Menlo,'Bitstream Vera Sans Mono','Powerline Symbols',monospace}.c{fill:rgb(101,123,131);white-space:pre}.d{fill:transparent}</style><g font-family="&#x27;Fira Code&#x27;,Monaco,Consolas,Menlo,&#x27;Bitstream Vera Sans Mono&#x27;,&#x27;Powerline Symbols&#x27;,monospace" font-size="1.67" class="b"><defs><symbol id="1"><text font-size="1.67" x="0" y="1.67" class="c">10</text><text font-size="1.67" x="3.006" y="1.67" class="c">x</text><text font-size="1.67" x="5.01" y="1.67" class="c">2</text><text font-size="1.67" x="7.013999999999999" y="1.67" class="c">sparse</text><text font-size="1.67" x="14.027999999999999" y="1.67" class="c">Matrix</text><text font-size="1.67" x="21.041999999999998" y="1.67" class="c">of</text><text font-size="1.67" x="24.048" y="1.67" class="c">class</text><text font-size="1.67" x="30.059999999999995" y="1.67" class="c">&quot;dgCMatrix&quot;</text></symbol><symbol id="a"><rect height="14" width="80" x="0" y="0" class="d"></rect></symbol></defs><rect height="30.394" width="80" class="a"></rect><svg x="0" y="0" width="80"><svg x="0"><use xlink:href="#a"></use><text font-size="1.67" x="0" y="1.67" class="c">Loading</text><text font-size="1.67" x="8.016" y="1.67" class="c">required</text><text font-size="1.67" x="17.034" y="1.67" class="c">package:</text><text font-size="1.67" x="26.052" y="1.67" class="c">Matrix</text><use xlink:href="#1" y="2.171"></use><text font-size="1.67" x="1.002" y="8.183" class="c">[1,]</text><text font-size="1.67" x="6.012" y="8.183" class="c">-0.57</text><text font-size="1.67" x="13.026" y="8.183" class="c">0.750</text><text font-size="1.67" x="1.002" y="10.354" class="c">[2,]</text><text font-size="1.67" x="6.012" y="10.354" class="c">-0.87</text><text font-size="1.67" x="12.024" y="10.354" class="c">-0.460</text><text font-size="1.67" x="1.002" y="12.525" class="c">[3,]</text><text font-size="1.67" x="7.013999999999999" y="12.525" class="c">1.10</text><text font-size="1.67" x="12.024" y="12.525" class="c">-1.700</text><text font-size="1.67" x="1.002" y="14.696" class="c">[4,]</text><text font-size="1.67" x="7.013999999999999" y="14.696" class="c">1.20</text><text font-size="1.67" x="13.026" y="14.696" class="c">1.600</text><text font-size="1.67" x="1.002" y="16.866999999999997" class="c">[5,]</text><text font-size="1.67" x="6.012" y="16.866999999999997" class="c">-1.30</text><text font-size="1.67" x="13.026" y="16.866999999999997" class="c">0.036</text><text font-size="1.67" x="1.002" y="19.037999999999997" class="c">[6,]</text><text font-size="1.67" x="7.013999999999999" y="19.037999999999997" class="c">0.38</text><text font-size="1.67" x="12.024" y="19.037999999999997" class="c">-2.000</text><text font-size="1.67" x="1.002" y="21.209000000000003" class="c">[7,]</text><text font-size="1.67" x="6.012" y="21.209000000000003" class="c">-0.46</text><text font-size="1.67" x="12.024" y="21.209000000000003" class="c">-0.160</text><text font-size="1.67" x="1.002" y="23.380000000000003" class="c">[8,]</text><text font-size="1.67" x="7.013999999999999" y="23.380000000000003" class="c">0.66</text><text font-size="1.67" x="12.024" y="23.380000000000003" class="c">-0.500</text><text font-size="1.67" x="1.002" y="25.550999999999995" class="c">[9,]</text><text font-size="1.67" x="7.013999999999999" y="25.550999999999995" class="c">1.30</text><text font-size="1.67" x="13.026" y="25.550999999999995" class="c">0.700</text><text font-size="1.67" x="0" y="27.722" class="c">[10,]</text><text font-size="1.67" x="6.012" y="27.722" class="c">-1.80</text><text font-size="1.67" x="13.026" y="27.722" class="c">2.900</text><use xlink:href="#1" y="28.223000000000003"></use></svg></svg></g></svg></svg>