<svg xmlns="http://www.w3.org/2000/svg" xmlns:xlink="http://www.w3.org/1999/xlink" width="840" height="300.52"><rect width="840" height="300.52" rx="0" ry="0" class="a"></rect><svg height="260.52" viewBox="0 0 80 26.052" width="800" x="20" xmlns="http://www.w3.org/2000/svg" xmlns:xlink="http://www.w3.org/1999/xlink" y="20"><style>.a{fill:rgb(22,27,34)}.b{font-family:'Fira Code',Monaco,Consolas,Menlo,'Bitstream Vera Sans Mono','Powerline Symbols',monospace}.c{fill:transparent}.d{fill:rgb(201,209,217);white-space:pre}</style><g font-family="&#x27;Fira Code&#x27;,Monaco,Consolas,Menlo,&#x27;Bitstream Vera Sans Mono&#x27;,&#x27;Powerline Symbols&#x27;,monospace" font-size="1.67" class="b"><defs><symbol id="a"><rect height="12" width="80" x="0" y="0" class="c"></rect></symbol></defs><rect height="26.052" width="80" class="a"></rect><svg x="0" y="0" width="80"><svg x="0"><use xlink:href="#a"></use><text font-size="1.67" x="1.002" y="3.8409999999999997" class="d">[1,]</text><text font-size="1.67" x="6.012" y="3.8409999999999997" class="d">-0.84</text><text font-size="1.67" x="12.024" y="3.8409999999999997" class="d">-1.200</text><text font-size="1.67" x="1.002" y="6.012" class="d">[2,]</text><text font-size="1.67" x="7.013999999999999" y="6.012" class="d">0.86</text><text font-size="1.67" x="12.024" y="6.012" class="d">-1.100</text><text font-size="1.67" x="1.002" y="8.183" class="d">[3,]</text><text font-size="1.67" x="7.013999999999999" y="8.183" class="d">0.78</text><text font-size="1.67" x="12.024" y="8.183" class="d">-1.300</text><text font-size="1.67" x="1.002" y="10.354" class="d">[4,]</text><text font-size="1.67" x="6.012" y="10.354" class="d">-0.02</text><text font-size="1.67" x="12.024" y="10.354" class="d">-0.440</text><text font-size="1.67" x="1.002" y="12.525" class="d">[5,]</text><text font-size="1.67" x="7.013999999999999" y="12.525" class="d">0.86</text><text font-size="1.67" x="13.026" y="12.525" class="d">0.042</text><text font-size="1.67" x="1.002" y="14.696" class="d">[6,]</text><text font-size="1.67" x="7.013999999999999" y="14.696" class="d">1.20</text><text font-size="1.67" x="13.026" y="14.696" class="d">1.100</text><text font-size="1.67" x="1.002" y="16.866999999999997" class="d">[7,]</text><text font-size="1.67" x="6.012" y="16.866999999999997" class="d">-0.92</text><text font-size="1.67" x="13.026" y="16.866999999999997" class="d">0.530</text><text font-size="1.67" x="1.002" y="19.037999999999997" class="d">[8,]</text><text font-size="1.67" x="7.013999999999999" y="19.037999999999997" class="d">0.29</text><text font-size="1.67" x="13.026" y="19.037999999999997" class="d">0.920</text><text font-size="1.67" x="1.002" y="21.209000000000003" class="d">[9,]</text><text font-size="1.67" x="7.013999999999999" y="21.209000000000003" class="d">0.11</text><text font-size="1.67" x="12.024" y="21.209000000000003" class="d">-1.500</text><text font-size="1.67" x="0" y="23.380000000000003" class="d">[10,]</text><text font-size="1.67" x="6.012" y="23.380000000000003" class="d">-1.60</text><text font-size="1.67" x="13.026" y="23.380000000000003" class="d">0.630</text><text font-size="1.67" x="0" y="25.550999999999995" class="d">Error</text><text font-size="1.67" x="6.012" y="25.550999999999995" class="d">in</text><text font-size="1.67" x="9.017999999999999" y="25.550999999999995" class="d">loadNamespace(x)</text><text font-size="1.67" x="26.052" y="25.550999999999995" class="d">:</text><text font-size="1.67" x="28.055999999999997" y="25.550999999999995" class="d">there</text><text font-size="1.67" x="34.068" y="25.550999999999995" class="d">is</text><text font-size="1.67" x="37.074" y="25.550999999999995" class="d">no</text><text font-size="1.67" x="40.08" y="25.550999999999995" class="d">package</text><text font-size="1.67" x="48.096" y="25.550999999999995" class="d">called</text><text font-size="1.67" x="55.10999999999999" y="25.550999999999995" class="d">‘glue’</text></svg></svg></g></svg></svg>